<svg width="40" height="40" viewBox="0 0 40 40" fill="none" xmlns="http://www.w3.org/2000/svg">
<path d="M20 10.04C25.4998 10.04 29.9997 14.5297 30 20.0595C30.0053 22.4451 29.158 24.7548 27.6104 26.5703C26.0626 28.3857 23.916 29.5878 21.5596 29.9599V22.9599H23.8896L24.3398 20.0595H21.5596V18.1796C21.5597 17.3898 21.9506 16.6201 23.1904 16.6201H24.4502V14.1504C24.4502 14.1504 23.3097 13.9599 22.2197 13.9599C19.93 13.96 18.4406 15.3399 18.4404 17.8496V20.0595H15.9004V22.9599H18.4404V29.9599C13.6604 29.2099 10 25.0595 10 20.0595C10.0003 14.5297 14.5002 10.04 20 10.04Z" fill="#112250"/>
</svg>
