<svg width="40" height="40" viewBox="0 0 40 40" fill="none" xmlns="http://www.w3.org/2000/svg">
<path d="M24.2002 10C27.4 10.0001 29.9999 12.6 30 15.7998V24.2002C29.9999 25.7384 29.3884 27.2131 28.3008 28.3008C27.2131 29.3884 25.7384 29.9999 24.2002 30H15.7998C12.6 29.9999 10.0001 27.4 10 24.2002V15.7998C10.0001 14.2616 10.6116 12.7869 11.6992 11.6992C12.7869 10.6116 14.2616 10.0001 15.7998 10H24.2002ZM15.5996 12C14.645 12.0001 13.7297 12.3796 13.0547 13.0547C12.3796 13.7297 12.0001 14.645 12 15.5996V24.4004C12.0002 26.3901 13.6099 27.9998 15.5996 28H24.4004C25.355 27.9999 26.2703 27.6204 26.9453 26.9453C27.6204 26.2703 27.9999 25.355 28 24.4004V15.5996C27.9998 13.6099 26.3901 12.0002 24.4004 12H15.5996ZM20 15C21.3261 15 22.5975 15.5272 23.5352 16.4648C24.4728 17.4025 25 18.6739 25 20C25 21.3261 24.4728 22.5975 23.5352 23.5352C22.5975 24.4728 21.3261 25 20 25C18.6739 25 17.4025 24.4728 16.4648 23.5352C15.5272 22.5975 15 21.3261 15 20C15 18.6739 15.5272 17.4025 16.4648 16.4648C17.4025 15.5272 18.6739 15 20 15ZM20 17C19.2044 17 18.4415 17.3163 17.8789 17.8789C17.3163 18.4415 17 19.2044 17 20C17 20.7956 17.3163 21.5585 17.8789 22.1211C18.4415 22.6837 19.2044 23 20 23C20.7956 23 21.5585 22.6837 22.1211 22.1211C22.6837 21.5585 23 20.7956 23 20C23 19.2044 22.6837 18.4415 22.1211 17.8789C21.5585 17.3163 20.7956 17 20 17ZM25.25 13.5C25.5815 13.5 25.8994 13.6318 26.1338 13.8662C26.3682 14.1006 26.5 14.4185 26.5 14.75C26.5 15.0815 26.3682 15.3994 26.1338 15.6338C25.8994 15.8682 25.5815 16 25.25 16C24.9185 16 24.6006 15.8682 24.3662 15.6338C24.1318 15.3994 24 15.0815 24 14.75C24 14.4185 24.1318 14.1006 24.3662 13.8662C24.6006 13.6318 24.9185 13.5 25.25 13.5Z" fill="#112250"/>
</svg>
