<svg width="40" height="40" viewBox="0 0 40 40" fill="none" xmlns="http://www.w3.org/2000/svg">
<path d="M27 11C27.5304 11 28.039 11.2109 28.4141 11.5859C28.7891 11.961 29 12.4696 29 13V27C29 27.5304 28.7891 28.039 28.4141 28.4141C28.039 28.7891 27.5304 29 27 29H13C12.4696 29 11.961 28.7891 11.5859 28.4141C11.2109 28.039 11 27.5304 11 27V13C11 12.4696 11.2109 11.961 11.5859 11.5859C11.961 11.2109 12.4696 11 13 11H27ZM13.5 26.5H16.2695V18.1299H13.5V26.5ZM23.2402 17.9404C22.3902 17.9404 21.3999 18.4602 20.9199 19.2402V18.1299H18.1299V26.5H20.9199V21.5703C20.9199 20.8005 21.5398 20.1702 22.3096 20.1699C22.6808 20.1699 23.0373 20.3176 23.2998 20.5801C23.5624 20.8426 23.71 21.199 23.71 21.5703V26.5H26.5V21.2002C26.5 20.3356 26.1563 19.5059 25.5449 18.8945C24.9336 18.2834 24.1046 17.9405 23.2402 17.9404ZM14.8799 13.1904C14.4317 13.1905 14.0015 13.3677 13.6846 13.6846C13.3677 14.0015 13.1905 14.4317 13.1904 14.8799C13.1904 15.8098 13.9499 16.5595 14.8799 16.5596C15.3254 16.5596 15.7533 16.3834 16.0684 16.0684C16.3834 15.7533 16.5596 15.3254 16.5596 14.8799C16.5595 13.9499 15.8098 13.1904 14.8799 13.1904Z" fill="#112250"/>
</svg>
