<svg width="40" height="40" viewBox="0 0 40 40" fill="none" xmlns="http://www.w3.org/2000/svg">
<path d="M20 13C24.19 13 26.8001 13.1604 27.8301 13.4404C28.7299 13.6904 29.3096 14.2701 29.5596 15.1699C29.6896 15.6399 29.7798 16.2703 29.8398 17.0703C29.9098 17.8702 29.9404 18.5602 29.9404 19.1602L30 20C30 22.19 29.8396 23.8001 29.5596 24.8301C29.3096 25.7299 28.7299 26.3096 27.8301 26.5596C27.3601 26.6896 26.4997 26.7798 25.1797 26.8398C23.8798 26.9098 22.6898 26.9404 21.5898 26.9404L20 27C15.81 27 13.1999 26.8396 12.1699 26.5596C11.2701 26.3096 10.6904 25.7299 10.4404 24.8301C10.3104 24.3601 10.2202 23.7297 10.1602 22.9297C10.0902 22.1298 10.0596 21.4398 10.0596 20.8398L10 20C10 17.81 10.1604 16.1999 10.4404 15.1699C10.6904 14.2701 11.2701 13.6904 12.1699 13.4404C12.6399 13.3104 13.5003 13.2202 14.8203 13.1602C16.1202 13.0902 17.3102 13.0596 18.4102 13.0596L20 13ZM18 23L23.1904 20L18 17V23Z" fill="#112250"/>
</svg>
